<?xml version="1.0" encoding="utf-8"?>
<!-- Generator: Adobe Illustrator 17.0.0, SVG Export Plug-In . SVG Version: 6.00 Build 0)  -->
<!DOCTYPE svg PUBLIC "-//W3C//DTD SVG 1.1//EN" "http://www.w3.org/Graphics/SVG/1.1/DTD/svg11.dtd">
<svg version="1.1" id="Layer_1" xmlns="http://www.w3.org/2000/svg" xmlns:xlink="http://www.w3.org/1999/xlink" x="0px" y="0px"
	 width="220.183px" height="110.824px" viewBox="0 0 220.183 110.824" enable-background="new 0 0 220.183 110.824"
	 xml:space="preserve">
<path fill="#2C337E" d="M45.8,17.357h-3.733h-1.253c1.001,0.703,2.042,1.485,2.685,1.981C44.268,18.655,45.035,17.998,45.8,17.357z"
	/>
<path fill="#2C337E" d="M16.988,55.76c-0.344-0.573-0.158-1.317,0.414-1.659c0.574-0.345,1.316-0.16,1.659,0.414
	c0.84,1.397,1.763,1.664,3.184,0.913c13.523-7.111,26.129-14.662,26.801-21.711c0.195-2.046-0.639-4.08-2.511-6.163l-1.1,0.758
	c-2.003-2.909-5.827-6.281-8.912-7.985l0.512-1.069c-3.276-2.171-4.974-2.199-7.474-1.435c-6.771,2.075-11.637,15.941-15.886,30.616
	c-0.446,1.544-0.002,2.395,1.536,2.935c0.631,0.221,0.962,0.913,0.74,1.543c-0.175,0.498-0.643,0.809-1.141,0.809
	c-0.133,0-0.269-0.023-0.401-0.069c-2.747-0.966-3.861-3.114-3.057-5.892c4.32-14.919,8.514-25.934,14.168-30.408H4.372V57.13
	c0,0,6.429,0,13.727,0c-0.305-0.28-0.593-0.607-0.857-0.989C17.156,56.017,17.069,55.895,16.988,55.76z"/>
<path fill="#00B2E4" d="M40.167,87.807l-7.632-26.889h-6.668l-7.521,26.889l-6.087-26.889H4.372l8.386,37.047l0,0
	c0.618,2.765,2.478,5.047,5.311,5.047v0.03h1.575c0.104,0.001,0.21,0.002,0.309,0h1.573l7.617-27.233l6.314,22.156h0.004
	c0.618,2.765,2.478,5.047,5.311,5.047v0.03h1.575c0.104,0.001,0.209,0.002,0.309,0h1.939l9.491-42.124h-7.888L40.167,87.807z"/>
<path fill="#00B2E4" d="M81.079,76.811h-14.06V60.918h-8.133v37.047h0.046c0.045,2.794,2.317,5.047,5.121,5.047v0.03h1.575
	c0.104,0.001,0.209,0.002,0.309,0h1.083v-18.47h14.06v13.124c-0.002,0.063-0.013,0.123-0.013,0.187c0,0.028,0.008,0.054,0.008,0.083
	c0.045,2.794,2.316,5.047,5.121,5.047v0.03h1.575c0.104,0.001,0.21,0.002,0.309,0h1.104V60.918H81.08L81.079,76.811L81.079,76.811z"
	/>
<path fill="#00B2E4" d="M95.795,97.964h0.019c0.045,2.794,2.317,5.047,5.121,5.047v0.03h1.575c0.104,0.001,0.209,0.002,0.309,0
	h0.937V60.918h-7.961C95.795,60.918,95.795,97.964,95.795,97.964z"/>
<path fill="#00B2E4" d="M131.152,82.539c-0.65-0.669-2.506-2.282-5.565-4.84c-3.27-2.767-5.23-4.572-5.88-5.412
	c-0.479-0.63-0.718-1.297-0.718-2.005c0-0.706,0.334-1.341,1.005-1.904c0.669-0.563,1.53-0.845,2.582-0.845
	c2.16,0,4.284,1.451,6.368,4.353l5.939-5.24c-2.218-2.578-4.277-4.353-6.179-5.327c-1.901-0.974-3.903-1.461-6.006-1.461
	c-3.269,0-6.016,1.045-8.243,3.135c-2.226,2.09-3.34,4.597-3.34,7.517c0,2.025,0.669,4.053,2.008,6.086
	c1.339,2.033,4.303,4.921,8.893,8.662c2.409,1.966,3.969,3.427,4.676,4.382c0.708,0.955,1.062,1.909,1.062,2.864
	c0,1.05-0.469,1.976-1.406,2.777c-0.937,0.802-2.094,1.203-3.47,1.203c-2.639,0-4.972-1.862-6.998-5.584l-6.741,4.066
	c1.587,3.15,3.494,5.46,5.719,6.93c2.227,1.47,4.84,2.204,7.841,2.204c3.841,0,6.956-1.126,9.345-3.379
	c2.389-2.252,3.584-5.106,3.584-8.562c0-1.776-0.34-3.413-1.019-4.911S132.778,84.18,131.152,82.539z"/>
<path fill="#00B2E4" d="M139.12,68.821h7.474v29.143h0.017c0.045,2.794,2.317,5.047,5.121,5.047v0.03h2.995v-34.22h7.674v-7.904
	H139.12V68.821z"/>
<path fill="#00B2E4" d="M174.679,60.918h-8.018v37.047h0.017c0.045,2.794,2.316,5.047,5.121,5.047v0.03h14.563v-7.645h-11.683
	V60.918z"/>
<path fill="#2C337E" d="M212.236,38.377c-0.107,0.396-0.204,0.749-0.285,1.021c-0.682,2.285-1.656,6.056-1.666,6.094
	c-0.113,0.346-0.388,1.132-1.105,1.075c-0.855-0.068-1.02-1.074-1.38-3.278c-0.052-0.318-0.118-0.72-0.189-1.108
	c-0.831,2.47-1.372,3.216-2.168,3.14c-1.019-0.108-1.149-1.499-1.366-3.802c-0.04-0.419-0.079-0.836-0.123-1.218
	c-0.262-2.232-0.478-3.582-0.644-4.397c-0.27,1.023-0.583,2.529-0.873,3.919c-0.536,2.574-1.203,5.779-2.084,8.823
	c-0.148,0.512-0.539,0.667-0.833,0.636c-0.779-0.069-0.818-0.447-1.295-5.07c-0.069-0.669-0.152-1.475-0.238-2.228
	c-0.403,1.282-0.72,1.918-1.363,2c-0.176,0.022-0.623,0.019-0.94-0.51c-0.382-0.638-0.77-2.573-1.363-5.685
	c-0.097-0.506-0.204-1.07-0.312-1.618c-0.312,1.917-0.685,4.522-1.031,6.939c-0.524,3.657-1.019,7.112-1.348,8.649
	c-0.075,0.348-0.27,1.26-1.028,1.26c-0.014,0-0.028,0-0.042-0.001c-1.115-0.049-1.465-1.275-3.369-16.513l-0.095-0.76
	c-0.478-3.824-0.996-5.013-1.229-5.37c-0.299,0.388-1.077,1.838-1.951,6.988c-1.327,7.821-2.037,8.451-2.889,8.451
	c-0.003,0-0.007,0-0.01,0c-1.025-0.006-1.25-1.43-1.467-2.806l-0.032-0.198c-0.332-2.03-0.691-3.578-0.983-4.563
	c-0.122,0.479-0.257,1.032-0.407,1.646c-0.536,2.196-1.27,5.203-2.205,8.293c-0.123,0.406-0.448,1.478-1.326,1.387
	c-0.757-0.087-1.699-0.193-2.638-14.041l-0.074-1.166c-0.057-0.924-0.147-2.402-0.266-3.628c-0.385,1.445-0.856,3.391-1.316,5.294
	c-0.589,2.436-1.199,4.953-1.619,6.371c-0.202,0.682-0.665,0.756-0.854,0.757c-0.001,0-0.002,0-0.003,0
	c-0.731,0-0.958-0.753-1.371-2.118c-0.023-0.076-0.049-0.162-0.076-0.251c-0.333,0.745-0.692,1.38-1.343,1.423
	c-0.233,0.023-0.668-0.044-1.008-0.61c-0.211-0.352-0.411-0.76-0.597-1.141c-0.026-0.055-0.055-0.112-0.084-0.173
	c-0.862,2.458-2.898,8.473-3.54,11.469c-0.06,0.278-0.253,1.14-1.002,1.094c-1.067-0.046-1.52-0.989-3.952-20.451l-0.091-0.731
	c-0.34-2.717-0.643-3.951-0.844-4.512c-0.678,1.421-1.635,5.734-2.075,7.716c-1.656,7.466-3.439,8.947-5.781,8.927
	c-0.56-0.005-1.474-0.002-2.46,0.001c-0.673,0.002-1.37,0.004-2.019,0.004c0.846,1.362,1.293,2.912,1.293,4.675
	c0,2.647-0.972,4.856-2.916,6.626c-0.998,0.909-2.174,1.581-3.521,2.023h77.52V34.442l-0.471,0.166
	C213.065,35.326,212.495,37.421,212.236,38.377z"/>
<path fill="#2C337E" d="M213.946,22.414c-0.045-2.794-2.316-5.047-5.121-5.047v-0.011h-88.303c1.706,0.713,2.906,2.395,2.906,4.36
	c0,0.385-0.059,0.755-0.146,1.113c0,0.01,0.004,0.016,0.004,0.027c-0.05,2.07-3.164,7.815-4.582,9.131
	c-0.923,0.857-1.7,0.291-1.311-0.624c0.294-0.693,0.893-3.154,1.167-4.938c-2.541-0.078-4.581-2.15-4.581-4.71
	c0-1.964,1.2-3.647,2.906-4.36H97.318c2.063,2.825,3.983,6.081,5.737,9.818c0.645-0.115,1.305-0.185,1.982-0.185
	c6.244,0,11.325,5.08,11.325,11.326c0,6.244-5.08,11.325-11.325,11.325c-6.246,0-11.326-5.08-11.326-11.325
	c0-4.271,2.377-7.994,5.876-9.923c-2.082-4.378-4.375-8.061-6.872-11.036H84.29v32.71h11.005v7.064h32.633
	c-2.431-0.771-4.498-2.249-6.186-4.46l4.6-5.01c0.876,1.022,1.903,1.848,3.08,2.478s2.222,0.945,3.135,0.945
	c0.986,0,1.779-0.237,2.382-0.712c0.602-0.475,0.903-1.022,0.903-1.643c0-1.15-1.086-2.272-3.258-3.368l-2.519-1.259
	c-4.819-2.427-7.228-5.467-7.228-9.118c0-2.355,0.908-4.367,2.724-6.037s4.139-2.505,6.968-2.505c1.935,0,3.756,0.424,5.463,1.273
	c1.706,0.848,3.152,2.067,4.34,3.655l-4.627,4.627c-1.88-1.861-3.587-2.792-5.12-2.792c-0.84,0-1.497,0.178-1.972,0.534
	s-0.712,0.799-0.712,1.328c0,0.401,0.151,0.771,0.452,1.108c0.302,0.338,1.045,0.799,2.232,1.383l2.738,1.369
	c2.281,1.126,3.987,2.269,5.138,3.43c0.878,0.008,2.048,0.004,3.14-0.001c0.995-0.003,1.917-0.006,2.48,0
	c0.99-0.006,2.618,0.024,4.353-7.794c1.671-7.534,2.328-9.27,3.578-9.195c0.95,0.045,1.55,1.005,2.19,6.126l0.091,0.731
	c0.684,5.475,1.737,13.902,2.5,17.613c1.038-3.875,3.093-9.779,3.491-10.873c0.229-0.632,0.618-0.783,0.903-0.798
	c0.736-0.037,1.068,0.677,1.55,1.664c0.083,0.171,0.168,0.347,0.257,0.52c0.079-0.169,0.156-0.349,0.216-0.488
	c0.19-0.443,0.355-0.826,0.557-1.09c0.2-0.261,0.5-0.383,0.81-0.327c0.597,0.108,0.82,0.706,1.178,1.882
	c0.349-1.344,0.751-3.007,1.145-4.633c0.751-3.103,1.46-6.033,1.894-7.256c0.242-0.683,0.611-0.986,1.097-0.926
	c0.893,0.126,1.095,1.074,1.444,6.768l0.073,1.157c0.435,6.413,0.917,10.092,1.3,11.776c0.846-2.856,1.519-5.613,2.018-7.66
	c0.322-1.318,0.576-2.359,0.763-2.963c0.255-0.819,0.789-0.864,1.009-0.857c0.472,0.033,1.351,0.095,2.453,6.848l0.033,0.205
	c0.025,0.159,0.073,0.46,0.133,0.77c0.301-0.936,0.757-2.783,1.375-6.432c1.417-8.343,2.775-8.32,3.419-8.302
	c1.072,0.023,1.929,1.18,2.625,6.746l0.095,0.761c0.603,4.826,1.315,10.53,1.885,13.5c0.298-1.797,0.67-4.392,1.032-6.923
	c0.775-5.415,1.309-9.034,1.643-9.953c0.162-0.446,0.543-0.581,0.81-0.558c0.755,0.06,0.875,0.562,1.745,5.124
	c0.242,1.271,0.568,2.979,0.84,4.104c0.104-0.324,0.203-0.662,0.281-0.928c0.298-1.016,0.479-1.605,0.722-1.923l0.299-0.391
	l0.522,0.109c0.657,0.185,0.74,0.55,1.258,5.573c0.035,0.345,0.074,0.718,0.114,1.093c0.484-1.993,0.891-3.946,1.241-5.628
	c1.036-4.978,1.311-6.154,2.371-6.104c0.866,0.038,1.29,0.655,2,6.71c0.046,0.392,0.086,0.819,0.127,1.25
	c0.047,0.499,0.112,1.187,0.192,1.747c0.198-0.463,0.464-1.178,0.811-2.278c0.141-0.444,0.436-1.383,1.229-1.315
	c0.914,0.065,1.103,1.22,1.479,3.519c0.023,0.146,0.049,0.304,0.077,0.467c0.347-1.31,0.853-3.18,1.257-4.537
	c0.079-0.263,0.171-0.604,0.275-0.987c0.91-3.348,1.457-4.929,2.539-4.969c0.212-0.018,0.405,0.057,0.584,0.182V22.414H213.946z"/>
<path fill="#2C337E" d="M96.149,38.316c0,4.901,3.988,8.887,8.888,8.887s8.887-3.986,8.887-8.887s-3.986-8.888-8.887-8.888
	S96.149,33.416,96.149,38.316z M105.036,31.319c3.864,0,6.997,3.132,6.997,6.997c0,3.864-3.133,6.997-6.997,6.997
	s-6.997-3.132-6.997-6.997C98.04,34.452,101.172,31.319,105.036,31.319z"/>
<path fill="#00B2E4" d="M190.967,97.568c-0.006,0.105-0.021,0.207-0.021,0.314c0,0.028,0.008,0.054,0.008,0.083
	c0.045,2.794,2.316,5.047,5.121,5.047v0.03h17.886v-7.875h-15.034V84.085h15.034v-7.704h-15.034v-7.617h15.034v-7.847h-22.995
	L190.967,97.568L190.967,97.568z"/>
<path fill="#2C337E" d="M58.79,39.142V57.13h15.848h1.985h3.554c-2.034-0.658-3.514-2.532-3.55-4.776h-0.004v-0.04
	c0-0.015-0.004-0.028-0.004-0.043c0-0.022,0.004-0.042,0.004-0.064v-34.85h-5.457v7.11H58.79v7.31h12.375v7.366H58.79V39.142z"/>
<path fill="#2C337E" d="M26.058,56.141c-0.609,0.327-1.235,0.659-1.859,0.989c5.087,0,9.86,0,12.48,0h12.533h1.967h3.572
	c-2.034-0.658-3.514-2.532-3.55-4.776h-0.022V35.435C49.382,42.199,39.881,48.712,26.058,56.141z"/>
<path fill="#2C337E" d="M49.42,25.567l-0.881,0.607c1.333,1.535,2.207,3.082,2.638,4.657V19.6c0-0.006-0.001-0.011-0.001-0.017
	c0-0.79,0.216-1.786,0.517-2.213c-1.79,1.329-3.6,2.79-5.431,4.399C47.425,22.939,48.486,24.209,49.42,25.567z"/>
<path fill="#F05224" d="M93.711,38.316c0,6.244,5.08,11.325,11.326,11.325c6.244,0,11.325-5.08,11.325-11.325
	c0-6.246-5.08-11.326-11.325-11.326c-0.677,0-1.337,0.07-1.982,0.185c-1.754-3.737-3.674-6.993-5.737-9.818
	c-0.239-0.327-0.471-0.674-0.715-0.989C91.726,10.047,86.036,6.19,79.587,4.891c-9.64-1.943-20.815,2.017-32.593,11.477
	c-0.397,0.319-0.795,0.656-1.193,0.989c-0.765,0.642-1.532,1.299-2.301,1.981c-0.642-0.496-1.683-1.277-2.685-1.981
	c-0.728-0.511-1.436-0.983-1.951-1.268l-0.696,1.26c-1.051-0.622-0.948-0.492-1.949-0.982c-2.607-1.276-5.045-1.568-7.367-0.859
	c-0.655,0.201-1.284,0.506-1.902,0.859c-0.488,0.279-0.963,0.619-1.43,0.989c-5.655,4.474-9.85,15.49-14.17,30.409
	c-0.805,2.778,0.31,4.926,3.057,5.892c0.132,0.046,0.268,0.069,0.401,0.069c0.499,0,0.967-0.312,1.141-0.809
	c0.221-0.63-0.109-1.321-0.74-1.543c-1.538-0.54-1.982-1.391-1.536-2.935c4.249-14.675,9.115-28.541,15.886-30.616
	c2.501-0.764,4.199-0.736,7.474,1.435l-0.512,1.069c3.085,1.703,6.909,5.076,8.912,7.985l1.1-0.758
	c1.872,2.083,2.706,4.117,2.511,6.163c-0.672,7.049-13.278,14.6-26.801,21.711c-1.421,0.751-2.344,0.484-3.184-0.913
	c-0.343-0.574-1.086-0.759-1.659-0.414c-0.573,0.343-0.758,1.087-0.414,1.659c0.081,0.135,0.168,0.256,0.254,0.381
	c0.264,0.382,0.552,0.709,0.857,0.989c0.804,0.739,1.74,1.124,2.763,1.124c0.794,0,1.638-0.225,2.509-0.683
	c0.282-0.148,0.55-0.293,0.827-0.44c0.624-0.331,1.25-0.662,1.859-0.989c13.823-7.429,23.324-13.942,25.12-20.706
	c0.131-0.495,0.23-0.991,0.278-1.489c0.1-1.054,0.003-2.091-0.278-3.117c-0.431-1.575-1.305-3.122-2.638-4.657l0.881-0.607
	c-0.935-1.357-1.995-2.628-3.157-3.798c1.831-1.608,3.641-3.07,5.431-4.399c0.459-0.341,0.918-0.679,1.375-1.002
	c9.453-6.686,18.251-9.414,25.795-7.891c4.778,0.962,9.121,3.606,12.996,7.891c0.288,0.318,0.572,0.653,0.854,0.989
	c2.497,2.975,4.79,6.659,6.872,11.036C96.088,30.322,93.711,34.046,93.711,38.316z M105.037,29.428c4.901,0,8.887,3.988,8.887,8.888
	s-3.986,8.887-8.887,8.887s-8.888-3.986-8.888-8.887S100.136,29.428,105.037,29.428z"/>
<path fill="#F05224" d="M210.839,37.997c-0.104,0.383-0.197,0.725-0.275,0.987c-0.405,1.357-0.91,3.228-1.257,4.537
	c-0.027-0.163-0.053-0.321-0.077-0.467c-0.376-2.299-0.565-3.453-1.479-3.519c-0.792-0.067-1.088,0.871-1.229,1.315
	c-0.347,1.101-0.613,1.815-0.811,2.278c-0.081-0.561-0.146-1.248-0.192-1.747c-0.041-0.431-0.081-0.858-0.127-1.25
	c-0.71-6.055-1.134-6.672-2-6.71c-1.06-0.05-1.335,1.127-2.371,6.104c-0.35,1.682-0.757,3.635-1.241,5.628
	c-0.04-0.375-0.079-0.748-0.114-1.093c-0.519-5.023-0.601-5.389-1.258-5.573l-0.522-0.109l-0.299,0.391
	c-0.243,0.317-0.424,0.907-0.722,1.923c-0.079,0.266-0.178,0.604-0.281,0.928c-0.272-1.124-0.598-2.832-0.84-4.104
	c-0.87-4.562-0.99-5.064-1.745-5.124c-0.267-0.023-0.648,0.111-0.81,0.558c-0.334,0.919-0.867,4.538-1.643,9.953
	c-0.362,2.531-0.734,5.126-1.032,6.923c-0.57-2.97-1.283-8.674-1.885-13.5l-0.095-0.761c-0.696-5.566-1.553-6.723-2.625-6.746
	c-0.644-0.019-2.002-0.041-3.419,8.302c-0.619,3.648-1.075,5.496-1.375,6.432c-0.06-0.31-0.107-0.61-0.133-0.77l-0.033-0.205
	c-1.103-6.753-1.981-6.814-2.453-6.848c-0.22-0.007-0.754,0.038-1.009,0.857c-0.188,0.604-0.441,1.645-0.763,2.963
	c-0.499,2.047-1.172,4.804-2.018,7.66c-0.382-1.685-0.865-5.363-1.3-11.776l-0.073-1.157c-0.349-5.693-0.551-6.642-1.444-6.768
	c-0.486-0.061-0.855,0.243-1.097,0.926c-0.434,1.223-1.143,4.153-1.894,7.256c-0.393,1.626-0.795,3.289-1.145,4.633
	c-0.358-1.176-0.581-1.773-1.178-1.882c-0.309-0.056-0.61,0.066-0.81,0.327c-0.202,0.264-0.367,0.646-0.557,1.09
	c-0.06,0.14-0.137,0.319-0.216,0.488c-0.088-0.173-0.174-0.349-0.257-0.52c-0.481-0.987-0.814-1.701-1.55-1.664
	c-0.286,0.015-0.674,0.166-0.903,0.798c-0.397,1.094-2.453,6.998-3.491,10.873c-0.763-3.711-1.815-12.139-2.5-17.613L156.2,31.49
	c-0.64-5.121-1.24-6.081-2.19-6.126c-1.25-0.074-1.907,1.661-3.578,9.195c-1.735,7.818-3.363,7.788-4.353,7.794
	c-0.563-0.006-1.486-0.003-2.48,0c-1.091,0.005-2.262,0.009-3.14,0.001c-0.036,0,0.517,0.485,1.126,1.451
	c0.648,0,1.346-0.002,2.019-0.004c0.986-0.003,1.901-0.006,2.46-0.001c2.342,0.021,4.125-1.461,5.781-8.927
	c0.44-1.981,1.396-6.295,2.075-7.716c0.201,0.561,0.504,1.795,0.844,4.512l0.091,0.731c2.432,19.462,2.885,20.405,3.952,20.451
	c0.75,0.046,0.942-0.815,1.002-1.094c0.642-2.996,2.678-9.011,3.54-11.469c0.029,0.061,0.058,0.118,0.084,0.173
	c0.186,0.381,0.386,0.789,0.597,1.141c0.34,0.566,0.775,0.634,1.008,0.61c0.651-0.043,1.01-0.678,1.343-1.423
	c0.027,0.089,0.053,0.175,0.076,0.251c0.412,1.365,0.639,2.118,1.371,2.118c0.001,0,0.002,0,0.003,0
	c0.189-0.001,0.652-0.075,0.854-0.757c0.42-1.418,1.029-3.936,1.619-6.371c0.46-1.903,0.931-3.849,1.316-5.294
	c0.119,1.226,0.209,2.704,0.266,3.628l0.074,1.166c0.939,13.848,1.881,13.954,2.638,14.041c0.877,0.091,1.203-0.98,1.326-1.387
	c0.936-3.09,1.669-6.097,2.205-8.293c0.15-0.614,0.285-1.167,0.407-1.646c0.292,0.985,0.651,2.533,0.983,4.563l0.032,0.198
	c0.217,1.376,0.442,2.8,1.467,2.806c0.003,0,0.007,0,0.01,0c0.852,0,1.562-0.63,2.889-8.451c0.874-5.15,1.652-6.601,1.951-6.988
	c0.233,0.357,0.75,1.546,1.229,5.37l0.095,0.76c1.904,15.237,2.254,16.464,3.369,16.513c0.015,0.001,0.028,0.001,0.042,0.001
	c0.758,0,0.954-0.912,1.028-1.26c0.329-1.537,0.824-4.992,1.348-8.649c0.346-2.417,0.719-5.022,1.031-6.939
	c0.108,0.548,0.215,1.112,0.312,1.618c0.593,3.111,0.981,5.047,1.363,5.685c0.317,0.528,0.764,0.532,0.94,0.51
	c0.643-0.082,0.959-0.718,1.363-2c0.086,0.753,0.169,1.559,0.238,2.228c0.477,4.623,0.516,5.001,1.295,5.07
	c0.294,0.031,0.685-0.124,0.833-0.636c0.881-3.044,1.548-6.249,2.084-8.823c0.289-1.39,0.603-2.896,0.873-3.919
	c0.166,0.815,0.382,2.165,0.644,4.397c0.044,0.382,0.083,0.799,0.123,1.218c0.217,2.303,0.347,3.693,1.366,3.802
	c0.797,0.076,1.337-0.67,2.168-3.14c0.071,0.389,0.137,0.79,0.189,1.108c0.36,2.204,0.525,3.21,1.38,3.278
	c0.717,0.057,0.992-0.729,1.105-1.075c0.01-0.038,0.984-3.809,1.666-6.094c0.081-0.272,0.177-0.625,0.285-1.021
	c0.26-0.956,0.829-3.051,1.255-3.769l0.471-0.166c0,0,0-0.362,0-1.232c-0.18-0.124-0.372-0.2-0.584-0.182
	C212.296,33.069,211.748,34.65,210.839,37.997z"/>
</svg>
